<svg width="1061" height="229" viewBox="0 0 1061 229" fill="none" xmlns="http://www.w3.org/2000/svg">
<path d="M654.07 191.29C653.7 191.29 653.32 191.12 653.06 190.85C652.8 190.57 652.66 190.17 652.68 189.79L653.25 181.51C653.3 180.78 653.92 180.2 654.66 180.2C654.71 180.2 654.75 180.2 654.8 180.2C656.4 180.34 657.99 180.42 659.53 180.42C666.93 180.42 673.46 178.77 678.93 175.5C685.68 171.63 690.37 164.59 691.12 157.15C691.77 150.78 689.48 144.93 684.68 140.66C684.65 140.63 684.62 140.61 684.59 140.58C679.33 136.29 672.48 134.12 664.25 134.12C655.22 134.12 644.62 136.68 632.73 141.73C627.48 144 622.18 146.71 616.97 149.78C616.75 149.91 616.5 149.98 616.25 149.98C615.73 149.98 615.26 149.7 615.02 149.25L614.94 149.11C614.9 149.04 614.86 148.97 614.82 148.9L614.73 148.76L613.04 145.6L611.06 141.94C611.06 141.94 611.01 141.84 610.99 141.79C610.95 141.69 610.91 141.6 610.86 141.51L609.95 139.8C609.59 139.12 609.84 138.26 610.53 137.9C610.73 137.79 610.96 137.74 611.19 137.74C611.52 137.74 611.83 137.85 612.08 138.06C612.59 138.47 613.22 138.69 613.85 138.69C614.25 138.69 614.65 138.6 615.03 138.43C634.01 129.66 649.74 125.4 663.1 125.4C674.03 125.4 683.15 128.39 690.21 134.27C699.08 141.89 702.2 154.67 697.95 166.05C694.3 176.19 685.35 184.49 673.99 188.28C668.15 190.31 661.68 191.3 654.18 191.3H654.07V191.29Z" fill="#212121"/>
<path d="M144.14 196.49C132.49 196.49 123.59 192.99 117.7 186.1C109.31 175.67 108.47 159.98 115.15 138.13C115.4 137.31 115.26 136.42 114.78 135.72C114.3 135.02 113.52 134.57 112.66 134.5C107.83 134.15 103.07 133.41 98.52 132.31C98.15 132.22 97.82 131.97 97.63 131.64C97.44 131.3 97.4 130.88 97.51 130.52L100.01 122.6C100.2 122.01 100.72 121.62 101.35 121.62C101.5 121.62 101.66 121.64 101.81 121.69C106.83 123.36 112.22 124.35 117.83 124.64C117.88 124.64 117.93 124.64 117.98 124.64C119.11 124.64 120.14 123.96 120.58 122.9C124.74 112.8 129.97 102.11 136.11 91.15C136.65 90.19 136.58 89 135.92 88.11C135.38 87.38 134.54 86.97 133.66 86.97C133.47 86.97 133.27 86.99 133.07 87.03C124.26 88.91 115.51 91.37 107.05 94.35C106.31 94.62 105.46 94.93 104.56 95.26C102.21 96.11 99.58 97.06 97.75 97.87C96.84 98.26 95.77 98.71 94.64 99.18L94.52 99.23C92.41 100.11 90.23 101.01 88.61 101.8L79.72 106.08C79.72 106.08 79.62 106.13 79.58 106.15L70.96 110.93C68.81 112.12 66.45 113.62 64.16 115.08C62.87 115.9 61.61 116.71 60.42 117.43C60.4 117.44 60.37 117.46 60.35 117.47C52.56 122.54 45.18 128.4 39.61 132.94C39.36 133.15 39.04 133.26 38.72 133.26C38.29 133.26 37.91 133.08 37.63 132.75L32.3 126.25C32.06 125.96 31.95 125.57 31.99 125.2C32.03 124.81 32.22 124.48 32.52 124.24C66.18 97.96 103.94 81.27 144.73 74.63C145.53 74.5 146.24 74.03 146.66 73.34C148.79 69.94 151 66.46 153.44 62.72C158.44 55.04 164.07 46.83 171.18 36.89C171.7 36.16 171.85 35.22 171.56 34.36C171.53 34.27 171.51 34.18 171.5 34.08C171.45 33.7 171.55 33.34 171.78 33.04C172.04 32.7 172.47 32.49 172.9 32.49C173.2 32.49 173.51 32.6 173.75 32.78L181.83 38.98C182.36 39.39 182.53 40.12 182.23 40.73C182.21 40.78 182.18 40.83 182.16 40.88C175.03 50.04 168.34 59.09 162.29 67.77C161.67 68.66 161.62 69.84 162.16 70.78C162.66 71.66 163.6 72.19 164.6 72.19C164.68 72.19 164.75 72.19 164.83 72.19C171.21 71.67 177.65 71.38 183.95 71.32C184.34 71.32 184.69 71.46 184.97 71.74C185.24 72.02 185.38 72.37 185.37 72.75L185.22 81.14C185.21 81.89 184.56 82.52 183.82 82.52L183.17 82.5C181.3 82.45 179.37 82.39 177.47 82.39C176.74 82.39 176.01 82.39 175.28 82.42C167.86 82.48 160.28 82.94 152.81 83.8C151.97 83.9 151.21 84.37 150.76 85.09C142.99 97.34 136.57 108.92 131.65 119.5C131.21 120.46 131.33 121.58 131.98 122.41C132.52 123.1 133.34 123.49 134.2 123.49C134.38 123.49 134.55 123.47 134.73 123.44C140.63 122.31 146.42 120.47 151.92 117.97C156.83 115.74 161.51 112.96 165.85 109.69C166.1 109.5 166.39 109.4 166.71 109.4C167.16 109.4 167.58 109.62 167.84 109.98L172.72 116.72C172.94 117.03 173.03 117.44 172.96 117.81C172.89 118.18 172.66 118.52 172.34 118.73C167.1 122.1 161.59 124.99 155.97 127.33C146.77 131.15 137.1 133.52 127.22 134.39C126.11 134.49 125.17 135.23 124.8 136.28C120.8 147.93 118.96 158.29 119.34 167.08C119.34 167.11 119.34 167.14 119.34 167.17C120.37 180.92 128.49 187.9 143.5 187.9C143.76 187.9 144.01 187.9 144.27 187.9C163.81 187.27 188.64 177.54 220.23 158.17C220.45 158.03 220.7 157.96 220.96 157.96C221.45 157.96 221.92 158.23 222.17 158.66L226.39 165.88C226.58 166.2 226.63 166.61 226.53 166.97C226.43 167.33 226.17 167.65 225.85 167.82C220.52 170.69 215.74 173.19 211.64 175.24C191.47 185.13 165.55 196.49 144.12 196.49H144.14Z" fill="#212121"/>
<path d="M312.05 189.94C311.68 189.94 311.34 189.79 311.07 189.53C310.8 189.26 310.66 188.91 310.66 188.53V180.19C310.66 179.42 311.29 178.79 312.07 178.79C312.71 178.8 313.33 178.81 313.94 178.81C321.09 178.81 328.08 177.91 334.73 176.13C349.21 172.26 364.96 162.38 365.73 146.26C365.88 142.72 365.29 138.93 364.01 135.27C364 135.24 363.99 135.2 363.97 135.17C359.44 123.64 342.38 121.53 335.26 121.16C334.15 121.12 333.04 121.1 331.92 121.1C310.19 121.1 287.25 129.04 267.32 143.46C267.07 143.64 266.79 143.73 266.49 143.73C266.06 143.73 265.63 143.52 265.37 143.17L260.28 136.39C259.81 135.77 259.93 134.93 260.55 134.44C266.61 129.7 272.42 123.51 278.83 114.96C282.02 110.62 285.16 105.89 288.15 100.89C288.64 100.07 288.68 99.0501 288.25 98.1901C287.82 97.3301 286.99 96.7501 286.03 96.6501C284.94 96.5301 283.86 96.4101 282.78 96.2701C278.55 95.6901 274.75 94.8801 271.19 93.8201C270.83 93.7101 270.52 93.4501 270.35 93.1101C270.18 92.7701 270.16 92.3501 270.29 91.9901L273.19 84.1401C273.39 83.6001 273.93 83.2201 274.51 83.2201C274.67 83.2201 274.83 83.2501 274.99 83.3001C280.18 85.1001 286.48 86.3701 293.72 87.0801C293.81 87.0801 293.91 87.0901 294 87.0901C295.06 87.0901 296.04 86.4901 296.52 85.5301C297.83 82.8901 299.15 80.1301 300.43 77.3301C306.32 64.2401 310.19 53.4901 312.61 43.4601C312.61 43.4301 312.63 43.4001 312.63 43.3601C312.78 42.6701 312.94 41.9201 313.09 41.1701C313.28 40.2101 312.95 39.2201 312.23 38.5601C312.06 38.4001 311.77 38.0601 311.77 37.5301C311.77 36.7501 312.4 36.1201 313.18 36.1201H323.36C324.14 36.1201 324.77 36.7501 324.77 37.5301C324.77 37.6401 324.75 37.7501 324.72 37.8801C324.64 38.1801 324.62 38.5001 324.64 38.8101C324.64 38.9101 324.64 39.0101 324.64 39.0801C324.15 43.5401 322.87 47.4701 321.52 51.6301C321.52 51.6301 321.1 52.9301 320.91 53.5101C319.28 58.3001 317.48 63.1001 315.58 67.7101C313.3 73.2201 310.91 78.5901 308.49 83.6701C308.07 84.5501 308.14 85.5801 308.67 86.4001C309.19 87.2001 310.08 87.6901 311.03 87.6901H311.08C326.66 87.3901 343.19 85.0101 355.29 81.3101C358.99 80.1201 361.88 78.9401 364.17 77.6701C364.38 77.5601 364.61 77.5001 364.84 77.5001C365.34 77.5001 365.8 77.7701 366.05 78.2001L370.22 85.4101C370.42 85.7501 370.46 86.1601 370.34 86.5401C370.22 86.9101 369.96 87.2101 369.61 87.3801C361.64 91.1301 353.55 92.6601 345.73 94.1401C331.37 96.5001 318.27 97.6501 305.75 97.6501C304.85 97.6501 303.95 97.6501 303.05 97.6301H303.01C301.99 97.6301 301.04 98.1801 300.55 99.0801C297.67 104.29 294.66 109.32 291.59 114.03C290.94 115.03 290.99 116.33 291.72 117.27C292.26 117.98 293.09 118.37 293.95 118.37C294.24 118.37 294.53 118.33 294.81 118.23C307.07 114.28 318.83 112.28 329.76 112.28C336.56 112.28 343.14 113.06 349.31 114.6C363.95 118.54 371.96 126.63 373.75 139.29C375.35 149.6 372.96 158.86 366.66 166.85C355.07 181.55 333.64 188.19 317.45 189.51C315.62 189.69 313.84 189.82 312.12 189.91H312.04L312.05 189.94Z" fill="#212121"/>
<path d="M807.66 192.91C795.58 192.46 781.61 191.71 768.04 188.37C757.62 185.88 739.33 179.26 733.78 162.88C730.38 152.87 731.52 141.85 736.83 133.41C742.9 123.67 752.91 118.58 760.24 116.03C767.94 113.49 776.13 112.2 784.56 112.2C791.92 112.2 799.37 113.18 806.7 115.11C806.94 115.17 807.18 115.2 807.42 115.2C808.28 115.2 809.11 114.8 809.65 114.1C810.34 113.2 810.42 111.98 809.86 110.99C806.91 105.83 804.24 100.58 801.78 95.6701C801.3 94.7101 800.32 94.1201 799.26 94.1201C799.14 94.1201 799.03 94.1201 798.91 94.1401C788.68 95.4301 779.15 96.0601 769.78 96.0601C761.86 96.0601 754.06 95.5801 746.62 94.6501C742.42 94.0801 738.62 93.2801 735.03 92.2201C734.67 92.1101 734.35 91.8501 734.19 91.5101C734.02 91.1701 733.99 90.7401 734.13 90.3801L737.03 82.5301C737.23 81.9901 737.77 81.6101 738.35 81.6101C738.51 81.6101 738.67 81.6401 738.83 81.6901C747.12 84.5901 758.31 86.1301 771.18 86.1301C777.92 86.1301 785.37 85.6901 792.72 84.8601C793.61 84.7601 794.39 84.2501 794.84 83.4701C795.29 82.7001 795.34 81.7601 794.99 80.9401C790.47 70.5001 786.06 59.0501 781.5 45.9201L780.42 42.7301C780.13 41.8901 779.47 41.2301 778.62 40.9501C778.2 40.8101 777.87 40.4901 777.72 40.0701C777.6 39.7101 777.62 39.3401 777.79 39.0001C777.96 38.6601 778.23 38.4101 778.59 38.2801L788.21 34.9501C788.36 34.9001 788.51 34.8701 788.67 34.8701C789.27 34.8701 789.81 35.2501 790 35.8201C790.04 35.9201 790.06 36.0401 790.07 36.1601C790.1 36.4801 790.18 36.7901 790.31 37.0801C790.35 37.1601 790.37 37.2301 790.39 37.2901C794.44 51.9201 799.61 66.5201 805.77 80.6701C806.22 81.7101 807.25 82.3601 808.35 82.3601C808.55 82.3601 808.74 82.3401 808.94 82.3001C814.77 81.0501 822.2 79.2001 828.01 76.0401C828.21 75.9301 828.44 75.8701 828.66 75.8701C829.16 75.8701 829.63 76.1401 829.88 76.5801L833.71 83.2101C834.12 83.9201 834.25 84.5601 834.1 85.0501C834 85.3801 833.78 85.6201 833.46 85.7701C827.01 88.8201 820.65 90.3501 814.75 91.5501C813.89 91.7301 813.16 92.2901 812.78 93.0901C812.4 93.8801 812.41 94.8101 812.81 95.5901C817.83 105.4 824.93 117.92 835.46 127.77C836.03 128.29 836.61 128.79 837.16 129.24C837.21 129.28 837.27 129.33 837.33 129.37C838.1 129.91 838.87 130.48 839.62 131.05C839.92 131.28 840.11 131.6 840.16 131.98C840.21 132.36 840.11 132.73 839.88 133.03L834.76 139.67C834.49 140.02 834.09 140.22 833.64 140.22C833.31 140.22 833 140.11 832.75 139.9C832.33 139.55 831.91 139.19 831.5 138.83C831.48 138.81 831.45 138.79 831.43 138.77C819.14 128.73 803.65 122.57 787.84 121.45C786.06 121.33 784.27 121.27 782.52 121.27C770.65 121.27 760.16 124.14 752.17 129.58C745.28 134.32 741.02 141.25 740.47 148.61C739.97 154.8 741.36 160.65 744.38 165.05C754.51 179.38 778.64 181.51 795.91 181.88C797.05 181.9 798.18 181.91 799.32 181.91C801.96 181.91 804.68 181.86 807.64 181.76H807.69C808.46 181.76 809.09 182.39 809.09 183.16V191.5C809.09 192.27 808.46 192.9 807.69 192.91H807.66Z" fill="#212121"/>
<path d="M535.08 190.3C534.58 190.3 534.11 190.03 533.86 189.59L529.71 182.35C529.52 182.02 529.47 181.65 529.58 181.28C529.68 180.91 529.92 180.61 530.26 180.43C546.42 171.51 557.19 161.41 563.17 149.53C566.99 141.79 568.02 133.55 566.08 126.31C560.66 107.01 539.23 99.4099 520.98 98.7299C519.77 98.6899 518.55 98.6599 517.36 98.6599C505.28 98.6599 493.06 100.73 480.02 105C479.01 105.33 478.27 106.21 478.11 107.26C473.75 136.78 465.81 161.21 453.85 181.94C453.02 183.36 451.96 185.04 450.94 186.66C450.38 187.55 449.82 188.44 449.31 189.28C449.05 189.7 448.61 189.95 448.11 189.95C447.82 189.95 447.55 189.87 447.31 189.7L440.43 184.94C439.8 184.5 439.64 183.63 440.07 182.99C442.46 179.5 444.96 175.8 446.89 172.29C447.13 171.87 447.4 171.42 447.67 170.96C448.24 170 448.81 169.04 449.22 168.21C457.45 152.67 463.23 135.17 466.91 114.71C467.1 113.68 466.7 112.64 465.87 111.99C465.37 111.6 464.76 111.4 464.14 111.4C463.75 111.4 463.35 111.48 462.98 111.65C458.6 113.63 454.08 115.86 449.56 118.29C440.96 123.01 432.74 128.16 425.12 133.61C424.87 133.79 424.6 133.87 424.3 133.87C423.84 133.87 423.41 133.64 423.14 133.26L418.41 126.36C418.2 126.05 418.12 125.65 418.19 125.28C418.26 124.91 418.5 124.58 418.81 124.37C428.13 118.41 436.67 113.51 444.92 109.4C452.66 105.55 460.29 102.22 467.61 99.5199C468.61 99.1499 469.31 98.2499 469.43 97.1999C470.49 87.8699 471.18 78.1399 471.53 67.4399C471.58 65.8899 470.37 64.5899 468.82 64.5399C467.31 64.4899 466.05 64.4599 464.85 64.4599C459.36 64.4599 453.57 64.8599 447.64 65.6399C446.1 65.8399 444.35 66.1499 442.65 66.4599C441.66 66.6399 440.72 66.8099 439.85 66.9499C439.81 66.9499 439.77 66.9599 439.74 66.9699C438.54 67.2199 436.3 67.7499 434.5 68.1699C433.57 68.3899 432.72 68.5899 432.11 68.7299C432.07 68.7399 432.02 68.7499 431.98 68.7599C430.4 69.1999 428.73 69.7099 427.11 70.1999C426.19 70.4799 425.29 70.7499 424.42 71.0099C423.26 71.3699 421.28 72.1199 419.53 72.7799C418.53 73.1599 417.6 73.4999 416.95 73.7399C416.34 73.9499 415.07 74.4699 414.5 74.7499C414.43 74.7799 412.54 75.6299 412.54 75.6299C411.21 76.2199 409.84 76.8399 408.54 77.4299C408.35 77.5199 408.16 77.5599 407.96 77.5599C407.41 77.5599 406.9 77.2299 406.68 76.7299L403.28 69.1299C403.12 68.7799 403.12 68.3599 403.27 68.0099C403.42 67.6599 403.72 67.3699 404.08 67.2299C405.67 66.6399 407.32 66.0099 408.93 65.3999C409.94 65.0199 410.95 64.6299 411.92 64.2699L412 64.2399C413.18 63.8799 414.48 63.4499 415.81 63.0199C418.66 62.0899 421.6 61.1299 424.11 60.5099C424.14 60.5099 424.17 60.4999 424.19 60.4899C438.68 56.4599 453.37 54.4099 467.84 54.4099C468.22 54.4099 469 54.4099 469.01 54.4099C469.75 54.4099 470.46 54.1199 470.99 53.5999C471.52 53.0699 471.82 52.3599 471.82 51.6099C471.82 50.1599 471.82 48.6999 471.82 47.2099L471.74 40.9399C471.73 40.0399 471.29 39.2099 470.56 38.6899C470.18 38.4199 469.96 37.9999 469.96 37.5499C469.96 36.7699 470.59 36.1399 471.37 36.1399H481.55C482.33 36.1399 482.96 36.7699 482.96 37.5499C482.96 37.6399 482.96 37.7299 482.93 37.8299C482.87 38.1299 482.86 38.4399 482.9 38.7399C482.91 38.8399 482.92 38.9199 482.92 38.9799C482.81 43.9799 482.69 48.4099 482.55 52.5399C482.5 53.9899 483.57 55.2399 485.01 55.4199C486.95 55.6699 488.81 55.9499 490.54 56.2599L490.65 56.2799C491.04 56.3599 491.38 56.5899 491.58 56.9199C491.78 57.2499 491.84 57.6599 491.74 58.0299L489.52 66.0699C489.35 66.6799 488.79 67.0999 488.16 67.0999C488.04 67.0999 487.92 67.0799 487.8 67.0499C487.48 66.9699 487.17 66.8899 486.87 66.8199C486.41 66.7199 485.96 66.6199 485.51 66.5299L485.19 66.4599C485 66.4199 484.81 66.3999 484.62 66.3999C484 66.3999 483.4 66.5999 482.9 66.9799C482.25 67.4799 481.85 68.2399 481.81 69.0499C481.36 77.0899 480.79 84.4199 480.08 91.4499C479.99 92.3699 480.35 93.2699 481.05 93.8699C481.57 94.3099 482.22 94.5499 482.88 94.5499C483.12 94.5499 483.36 94.5199 483.6 94.4599C494.69 91.5399 505.46 90.0599 515.59 90.0599C523.14 90.0599 530.52 90.8899 537.51 92.5199C545.81 94.5599 557.55 99.0699 566.16 108.91C573.95 117.92 577.13 128.88 575.32 140.57C573.72 150.94 568.22 161.61 559.82 170.6C553.92 177.09 546.79 183.01 538.01 188.72L535.86 190.09C535.63 190.23 535.37 190.31 535.11 190.31L535.08 190.3Z" fill="#212121"/>
<path d="M972.73 193.51C963.06 193.51 954.63 188.68 950.16 180.58C944.68 170.77 945.03 159.64 945.77 152.12C945.84 151.5 945.92 150.89 946 150.27C946.46 146.63 946.88 143.19 946.81 139.66C946.62 133.06 945.56 125.22 938.94 122.98C938.85 122.95 938.75 122.92 938.66 122.9C937.68 122.68 936.67 122.57 935.65 122.57C929.5 122.57 923.61 126.64 919.74 130.05C917.24 132.32 915.02 134.93 913.1 137.82C913.07 137.86 913.04 137.9 913.01 137.93C912.89 138.11 912.78 138.29 912.7 138.49C901.93 164.66 885.46 182.01 862.34 191.52C862.17 191.59 862 191.62 861.81 191.62C861.23 191.62 860.69 191.24 860.49 190.7L857.58 182.85C857.45 182.49 857.46 182.12 857.62 181.78C857.78 181.43 858.07 181.17 858.43 181.04C876.22 174.65 891.59 160.11 900.59 141.16C908.55 124.88 913.42 105.5 915.89 80.2C916.99 68.3 917.52 55.58 917.5 41.31C917.5 40.43 917.09 39.6 916.38 39.07C916.02 38.8 915.81 38.39 915.81 37.95C915.81 37.17 916.44 36.54 917.22 36.54H927.4C928.18 36.54 928.81 37.17 928.81 37.95C928.81 38.05 928.79 38.16 928.76 38.29C928.71 38.51 928.68 38.74 928.68 38.97C928.68 38.99 928.68 39.03 928.68 39.06C927.96 61.67 926.48 87.99 920.98 111.93C920.74 112.96 921.1 114.03 921.91 114.71C922.43 115.15 923.07 115.37 923.73 115.37C924.09 115.37 924.46 115.3 924.81 115.15C927.51 114.03 930.31 113.26 933.13 112.87C934.05 112.77 934.96 112.73 935.83 112.73C941.17 112.73 945.84 114.59 949.32 118.1C954.02 122.84 956.69 130.64 956.63 139.5C956.63 139.53 956.63 139.55 956.63 139.58C956.71 143.47 956.26 147.34 955.82 151.08L955.59 153.11C954.71 162.77 955.8 170.07 958.94 175.5C961.76 180.45 966.41 183.08 972.39 183.08C976.83 183.08 981.97 181.54 986.48 178.86C995.85 173.4 1003.91 164.15 1009.78 152.13C1013.02 145.45 1015.47 138.05 1017.06 130.12C1017.19 129.46 1017.77 128.98 1018.44 128.98C1018.53 128.98 1018.62 128.98 1018.7 129.01L1026.98 130.6C1027.36 130.67 1027.68 130.88 1027.89 131.2C1028.1 131.52 1028.17 131.88 1028.1 132.25C1025.23 146.26 1019.29 159.81 1011.39 170.39C1002.12 182.8 990.48 190.64 977.73 193.07C976.08 193.36 974.39 193.51 972.72 193.51H972.73Z" fill="#212121"/>
</svg>
