<svg width="471" height="469" viewBox="0 0 471 469" fill="none" xmlns="http://www.w3.org/2000/svg">
<path d="M216.04 363.8C196.81 363.8 182.13 358.03 172.41 346.65C158.56 329.44 157.19 303.55 168.2 267.5C168.61 266.15 168.39 264.69 167.59 263.52C166.79 262.35 165.51 261.62 164.1 261.51C156.13 260.93 148.28 259.71 140.76 257.9C140.15 257.75 139.61 257.34 139.3 256.79C138.99 256.23 138.91 255.54 139.11 254.94L143.24 241.87C143.55 240.89 144.42 240.26 145.45 240.26C145.71 240.26 145.96 240.3 146.2 240.38C154.48 243.13 163.37 244.77 172.64 245.25C172.72 245.25 172.8 245.25 172.88 245.25C174.75 245.25 176.45 244.12 177.17 242.38C184.04 225.71 192.66 208.08 202.79 189.99C203.68 188.4 203.56 186.43 202.48 184.97C201.59 183.77 200.2 183.08 198.74 183.08C198.42 183.08 198.09 183.11 197.77 183.18C183.23 186.28 168.79 190.34 154.83 195.26C153.61 195.71 152.21 196.22 150.73 196.75C146.85 198.15 142.51 199.72 139.49 201.05C138 201.7 136.22 202.44 134.37 203.21L134.18 203.29C130.7 204.73 127.1 206.23 124.43 207.52L109.77 214.59C109.69 214.63 109.61 214.67 109.53 214.71L95.31 222.6C91.77 224.56 87.86 227.05 84.09 229.45C81.96 230.81 79.88 232.13 77.92 233.33C77.88 233.35 77.84 233.38 77.8 233.4C64.95 241.77 52.76 251.44 43.58 258.93C43.17 259.27 42.65 259.45 42.12 259.45C41.41 259.45 40.78 259.15 40.33 258.6L31.53 247.87C31.14 247.4 30.95 246.75 31.02 246.13C31.09 245.49 31.39 244.95 31.9 244.55C87.45 201.18 149.74 173.64 217.06 162.69C218.38 162.48 219.54 161.7 220.25 160.57C223.76 154.95 227.42 149.22 231.44 143.05C239.69 130.38 248.99 116.83 260.72 100.42C261.59 99.2099 261.82 97.6599 261.35 96.2499C261.3 96.0999 261.26 95.9499 261.24 95.7899C261.16 95.1699 261.32 94.5699 261.7 94.0699C262.13 93.5099 262.83 93.1699 263.54 93.1699C264.04 93.1699 264.55 93.3399 264.95 93.6499L278.27 103.88C279.15 104.56 279.43 105.77 278.93 106.76C278.89 106.84 278.85 106.92 278.82 107C267.06 122.12 256.02 137.04 246.02 151.38C244.99 152.85 244.91 154.79 245.8 156.35C246.63 157.8 248.17 158.68 249.82 158.68C249.95 158.68 250.07 158.68 250.2 158.66C260.73 157.8 271.35 157.32 281.76 157.22C282.4 157.22 282.98 157.45 283.44 157.92C283.89 158.38 284.12 158.96 284.11 159.59L283.86 173.43C283.84 174.67 282.78 175.71 281.54 175.71L280.46 175.68C277.38 175.59 274.19 175.51 271.05 175.51C269.85 175.51 268.64 175.52 267.44 175.55C255.19 175.64 242.69 176.41 230.36 177.83C228.97 177.99 227.72 178.77 226.97 179.96C214.16 200.17 203.55 219.28 195.44 236.75C194.71 238.33 194.92 240.19 195.99 241.56C196.88 242.7 198.24 243.35 199.65 243.35C199.94 243.35 200.23 243.32 200.52 243.27C210.26 241.41 219.81 238.37 228.89 234.25C236.99 230.57 244.72 225.98 251.87 220.58C252.29 220.26 252.77 220.1 253.29 220.1C254.03 220.1 254.73 220.46 255.16 221.05L263.22 232.18C263.59 232.69 263.74 233.36 263.62 233.98C263.5 234.59 263.12 235.16 262.6 235.49C253.95 241.04 244.86 245.82 235.59 249.68C220.41 255.98 204.44 259.9 188.14 261.32C186.31 261.48 184.75 262.7 184.15 264.44C177.55 283.66 174.51 300.76 175.13 315.26C175.13 315.31 175.13 315.36 175.13 315.41C176.82 338.1 190.24 349.61 215 349.61C215.42 349.61 215.85 349.61 216.27 349.61C248.52 348.57 289.49 332.52 341.6 300.55C341.97 300.32 342.38 300.21 342.81 300.21C343.62 300.21 344.4 300.66 344.81 301.36L351.77 313.27C352.08 313.8 352.17 314.48 352 315.07C351.83 315.66 351.41 316.19 350.87 316.48C342.07 321.22 334.19 325.33 327.43 328.72C294.15 345.04 251.37 363.79 216.02 363.79L216.04 363.8Z" fill="#212121"/>
<path fill-rule="evenodd" clip-rule="evenodd" d="M235.13 36.5C150.716 36.5 78.6414 89.3232 50.1578 163.725L46.4222 162.295C75.4786 86.3967 149.004 32.5 235.13 32.5C346.695 32.5 437.13 122.935 437.13 234.5C437.13 346.065 346.695 436.5 235.13 436.5C151.458 436.5 79.6699 385.623 49.008 313.129L52.692 311.571C82.7501 382.637 153.122 432.5 235.13 432.5C344.485 432.5 433.13 343.855 433.13 234.5C433.13 125.145 344.485 36.5 235.13 36.5Z" fill="#212121"/>
</svg>
