<?xml version="1.0" encoding="UTF-8"?><svg id="_レイヤー_5のコピー_8" xmlns="http://www.w3.org/2000/svg" viewBox="0 0 350.65 60.16"><defs><style>.cls-1{fill:#be84b8;}</style></defs><path class="cls-1" d="M16,24.72c0-.35.1-.62.3-.82.2-.2.47-.3.82-.3.32,0,.58.1.78.3.2.2.3.47.3.82v1.8c.45-.91,1.12-1.62,2-2.14s1.99-.78,3.32-.78,2.58.33,3.58.98,1.78,1.63,2.34,2.94c.56-1.31,1.37-2.29,2.42-2.94,1.05-.65,2.29-.98,3.7-.98,2.11,0,3.75.71,4.94,2.14s1.78,3.51,1.78,6.26v11.04c0,.35-.1.62-.3.82-.2.2-.47.3-.82.3-.32,0-.58-.1-.78-.3-.2-.2-.3-.47-.3-.82v-11.04c0-2.16-.44-3.75-1.32-4.78-.88-1.03-2.03-1.54-3.44-1.54-1.63,0-2.87.55-3.72,1.64-.85,1.09-1.31,2.53-1.36,4.32v11.4c0,.35-.1.62-.3.82-.2.2-.46.3-.78.3-.35,0-.62-.1-.82-.3-.2-.2-.3-.47-.3-.82v-11.04c0-2.16-.44-3.75-1.32-4.78-.88-1.03-2.03-1.54-3.44-1.54-.83,0-1.55.15-2.18.46-.63.31-1.15.73-1.58,1.26-.43.53-.75,1.17-.96,1.92-.21.75-.33,1.57-.36,2.48v11.24c0,.35-.1.62-.3.82-.2.2-.46.3-.78.3-.35,0-.62-.1-.82-.3-.2-.2-.3-.47-.3-.82v-18.32Z"/><path class="cls-1" d="M76.84,35.36c0,1.36-.17,2.58-.5,3.66-.33,1.08-.84,2-1.52,2.76-.68.76-1.53,1.35-2.54,1.76-1.01.41-2.2.62-3.56.62s-2.46-.2-3.46-.6c-1-.4-1.85-.97-2.54-1.72-.69-.75-1.22-1.67-1.58-2.76-.36-1.09-.54-2.33-.54-3.72v-3c0-2.85.71-5.03,2.12-6.52,1.41-1.49,3.41-2.24,6-2.24s4.59.75,6,2.24c1.41,1.49,2.12,3.67,2.12,6.52v3ZM71.28,41.64c.75-.32,1.37-.77,1.86-1.34.49-.57.87-1.28,1.12-2.12.25-.84.38-1.78.38-2.82v-3c0-2.21-.51-3.89-1.52-5.02-1.01-1.13-2.48-1.7-4.4-1.7s-3.39.57-4.4,1.72-1.52,2.81-1.52,5v3c0,1.04.12,1.98.36,2.82.24.84.61,1.55,1.1,2.12.49.57,1.11,1.02,1.86,1.34.75.32,1.61.48,2.6.48s1.81-.16,2.56-.48Z"/><path class="cls-1" d="M107.27,41.6c.8-.35,1.47-.85,2-1.52.13-.16.28-.29.44-.4.16-.11.35-.16.56-.16.32,0,.58.09.78.28s.3.43.3.72c0,.16-.03.31-.1.46-.07.15-.17.3-.3.46-.61.8-1.45,1.45-2.52,1.96-1.07.51-2.37.76-3.92.76-1.33,0-2.53-.2-3.58-.6-1.05-.4-1.94-.97-2.66-1.72-.72-.75-1.27-1.67-1.64-2.76-.37-1.09-.56-2.35-.56-3.76v-2.96c0-2.85.74-5.03,2.22-6.52,1.48-1.49,3.55-2.24,6.22-2.24,1.41,0,2.63.22,3.66.66,1.03.44,1.87,1.02,2.54,1.74.13.13.25.27.34.42.09.15.14.34.14.58,0,.27-.11.49-.32.68-.21.19-.45.28-.72.28-.21,0-.39-.04-.54-.12s-.27-.17-.38-.28c-.53-.61-1.2-1.09-2-1.42-.8-.33-1.71-.5-2.72-.5-1.97,0-3.51.57-4.6,1.72s-1.64,2.81-1.64,5v2.96c0,.99.12,1.89.36,2.72.24.83.61,1.54,1.12,2.14.51.6,1.15,1.07,1.94,1.42.79.35,1.73.52,2.82.52s1.96-.17,2.76-.52Z"/><path class="cls-1" d="M131.15,43.86c-.2-.2-.3-.47-.3-.82v-25.92c0-.35.1-.62.3-.82.2-.2.47-.3.82-.3.32,0,.58.1.78.3s.3.47.3.82v9.4c.56-.96,1.31-1.69,2.24-2.18.93-.49,2.16-.74,3.68-.74,1.09,0,2.09.17,3,.52.91.35,1.68.87,2.32,1.56.64.69,1.13,1.56,1.48,2.6s.52,2.28.52,3.72v11.04c0,.35-.1.62-.3.82-.2.2-.47.3-.82.3-.32,0-.58-.1-.78-.3-.2-.2-.3-.47-.3-.82v-11.04c0-1.12-.13-2.08-.4-2.88s-.65-1.45-1.14-1.96c-.49-.51-1.07-.88-1.72-1.12-.65-.24-1.35-.36-2.1-.36-1.89,0-3.31.57-4.24,1.7-.93,1.13-1.41,2.61-1.44,4.42v11.24c0,.35-.1.62-.3.82-.2.2-.46.3-.78.3-.35,0-.62-.1-.82-.3Z"/><path class="cls-1" d="M167.32,16.36c.25-.24.58-.36.98-.36s.73.13.98.38c.25.25.38.59.38,1.02,0,.37-.13.68-.38.92-.25.24-.59.36-1.02.36-.4,0-.72-.12-.96-.36s-.36-.57-.36-1c0-.4.13-.72.38-.96ZM167.18,24.72c0-.35.1-.62.3-.82.2-.2.47-.3.82-.3.32,0,.59.1.8.3.21.2.32.47.32.82v18.32c0,.35-.1.62-.3.82-.2.2-.47.3-.82.3-.32,0-.59-.1-.8-.3-.21-.2-.32-.47-.32-.82v-18.32Z"/><path class="cls-1" d="M203.31,26.64c.05.13.08.28.08.44,0,.32-.1.57-.3.76s-.45.28-.74.28c-.19,0-.35-.04-.5-.12s-.3-.21-.46-.4c-.51-.64-1.11-1.12-1.82-1.44-.71-.32-1.75-.48-3.14-.48-.67,0-1.29.07-1.88.2-.59.13-1.09.33-1.5.6-.41.27-.74.61-.98,1.02-.24.41-.36.91-.36,1.5,0,.69.15,1.26.44,1.7.29.44.68.79,1.16,1.06.48.27,1.04.47,1.68.6.64.13,1.31.25,2,.36.99.13,1.91.31,2.76.52.85.21,1.61.54,2.26.98.65.44,1.17,1.01,1.56,1.72.39.71.58,1.59.58,2.66,0,.77-.13,1.5-.4,2.18-.27.68-.69,1.27-1.28,1.78-.59.51-1.35.9-2.28,1.18-.93.28-2.05.42-3.36.42-1.95,0-3.45-.27-4.5-.8-1.05-.53-1.9-1.16-2.54-1.88-.08-.08-.16-.19-.24-.34-.08-.15-.12-.31-.12-.5,0-.32.1-.57.3-.74.2-.17.46-.26.78-.26.16,0,.31.03.44.1.13.07.25.17.36.3.56.67,1.24,1.17,2.04,1.52.8.35,1.97.52,3.52.52s2.74-.27,3.66-.82c.92-.55,1.38-1.42,1.38-2.62,0-.64-.12-1.18-.36-1.62-.24-.44-.61-.81-1.12-1.12-.51-.31-1.13-.55-1.86-.74-.73-.19-1.59-.35-2.58-.48-.85-.11-1.67-.27-2.46-.5-.79-.23-1.48-.55-2.08-.98-.6-.43-1.08-.98-1.44-1.66s-.54-1.53-.54-2.54c0-1.63.59-2.93,1.78-3.92,1.19-.99,2.93-1.48,5.22-1.48,1.57,0,2.87.21,3.9.62,1.03.41,1.89,1.07,2.58,1.98.19.16.31.31.36.44Z"/><path class="cls-1" d="M236.47,26.64c.05.13.08.28.08.44,0,.32-.1.57-.3.76s-.45.28-.74.28c-.19,0-.35-.04-.5-.12s-.3-.21-.46-.4c-.51-.64-1.11-1.12-1.82-1.44-.71-.32-1.75-.48-3.14-.48-.67,0-1.29.07-1.88.2-.59.13-1.09.33-1.5.6-.41.27-.74.61-.98,1.02-.24.41-.36.91-.36,1.5,0,.69.15,1.26.44,1.7.29.44.68.79,1.16,1.06.48.27,1.04.47,1.68.6.64.13,1.31.25,2,.36.99.13,1.91.31,2.76.52.85.21,1.61.54,2.26.98.65.44,1.17,1.01,1.56,1.72.39.71.58,1.59.58,2.66,0,.77-.13,1.5-.4,2.18-.27.68-.69,1.27-1.28,1.78-.59.51-1.35.9-2.28,1.18-.93.28-2.05.42-3.36.42-1.95,0-3.45-.27-4.5-.8-1.05-.53-1.9-1.16-2.54-1.88-.08-.08-.16-.19-.24-.34-.08-.15-.12-.31-.12-.5,0-.32.1-.57.3-.74.2-.17.46-.26.78-.26.16,0,.31.03.44.1.13.07.25.17.36.3.56.67,1.24,1.17,2.04,1.52.8.35,1.97.52,3.52.52s2.74-.27,3.66-.82c.92-.55,1.38-1.42,1.38-2.62,0-.64-.12-1.18-.36-1.62-.24-.44-.61-.81-1.12-1.12-.51-.31-1.13-.55-1.86-.74-.73-.19-1.59-.35-2.58-.48-.85-.11-1.67-.27-2.46-.5-.79-.23-1.48-.55-2.08-.98-.6-.43-1.08-.98-1.44-1.66s-.54-1.53-.54-2.54c0-1.63.59-2.93,1.78-3.92,1.19-.99,2.93-1.48,5.22-1.48,1.57,0,2.87.21,3.9.62,1.03.41,1.89,1.07,2.58,1.98.19.16.31.31.36.44Z"/><path class="cls-1" d="M269.53,43.86c-.2.2-.47.3-.82.3-.32,0-.58-.1-.78-.3-.2-.2-.3-.47-.3-.82v-1.6c-.27.51-.6.94-1,1.3-.4.36-.84.65-1.32.86-.48.21-1,.36-1.56.44-.56.08-1.16.12-1.8.12-1.12,0-2.11-.13-2.96-.4s-1.58-.65-2.18-1.16c-.6-.51-1.05-1.14-1.36-1.9-.31-.76-.46-1.62-.46-2.58s.16-1.79.48-2.48c.32-.69.78-1.27,1.38-1.74.6-.47,1.32-.81,2.16-1.04s1.77-.34,2.78-.34h5.84v-2.52c0-.85-.09-1.55-.28-2.1-.19-.55-.48-.99-.88-1.32-.4-.33-.92-.57-1.56-.7-.64-.13-1.41-.2-2.32-.2-.59,0-1.1.02-1.54.06-.44.04-.82.11-1.14.22-.32.11-.6.25-.84.44-.24.19-.48.41-.72.68-.24.32-.45.57-.64.74-.19.17-.44.26-.76.26s-.59-.1-.8-.3c-.21-.2-.32-.46-.32-.78,0-.27.06-.51.18-.74s.31-.47.58-.74c.56-.59,1.31-1.05,2.24-1.4s2.2-.52,3.8-.52c1.23,0,2.29.11,3.2.32.91.21,1.65.57,2.24,1.06.59.49,1.03,1.15,1.32,1.96.29.81.44,1.83.44,3.06v13.04c0,.35-.1.62-.3.82ZM261.79,34.48c-.85,0-1.57.09-2.16.28-.59.19-1.06.45-1.42.78-.36.33-.62.72-.78,1.16-.16.44-.24.93-.24,1.46,0,1.41.45,2.42,1.34,3.02.89.6,2.03.9,3.42.9.8,0,1.55-.09,2.24-.26.69-.17,1.29-.47,1.8-.88.51-.41.91-.99,1.2-1.72.29-.73.44-1.66.44-2.78v-1.96h-5.84Z"/><path class="cls-1" d="M290.88,43.86c-.2-.2-.3-.47-.3-.82v-18.32c0-.35.1-.62.3-.82.2-.2.47-.3.82-.3.32,0,.58.1.78.3.2.2.3.47.3.82v1.84c.61-.96,1.41-1.69,2.4-2.2.99-.51,2.16-.76,3.52-.76,1.09,0,2.09.17,3,.52.91.35,1.68.87,2.32,1.56.64.69,1.13,1.56,1.48,2.6s.52,2.28.52,3.72v11.04c0,.35-.1.62-.3.82-.2.2-.47.3-.82.3-.32,0-.58-.1-.78-.3-.2-.2-.3-.47-.3-.82v-11.04c0-1.12-.13-2.08-.4-2.88s-.65-1.45-1.14-1.96c-.49-.51-1.07-.88-1.72-1.12-.65-.24-1.35-.36-2.1-.36-1.89,0-3.31.57-4.24,1.7-.93,1.13-1.41,2.61-1.44,4.42v11.24c0,.35-.1.62-.3.82-.2.2-.46.3-.78.3-.35,0-.62-.1-.82-.3Z"/><path class="cls-1" d="M324.65,25.66c-.19-.17-.28-.41-.28-.7,0-.32.09-.58.28-.78s.44-.3.76-.3h1.8v-3.56c0-.35.1-.62.3-.82.2-.2.46-.3.78-.3.35,0,.62.1.82.3s.3.47.3.82v3.56h4.2c.32,0,.57.09.76.28s.28.44.28.76-.09.57-.28.74-.44.26-.76.26h-4.2v11.48c0,.8.04,1.49.12,2.08.08.59.24,1.07.48,1.44.24.37.6.65,1.08.84.48.19,1.12.28,1.92.28h.56c.32,0,.58.09.78.28s.3.44.3.76-.1.58-.3.78c-.2.2-.46.3-.78.3h-.64c-1.09,0-2.01-.13-2.76-.38-.75-.25-1.34-.63-1.78-1.14-.44-.51-.75-1.15-.92-1.92-.17-.77-.26-1.68-.26-2.72v-12.08h-1.8c-.32,0-.57-.09-.76-.26Z"/></svg>