<?xml version="1.0" encoding="UTF-8"?><svg id="_レイヤー_5のコピー_8" xmlns="http://www.w3.org/2000/svg" viewBox="0 0 470.13 468"><defs><style>.cls-1{fill:none;stroke:#212121;stroke-miterlimit:10;stroke-width:4px;}.cls-2{fill:#212121;}</style></defs><path class="cls-2" d="M216.04,363.3c-19.23,0-33.91-5.77-43.63-17.15-13.85-17.21-15.22-43.1-4.21-79.15.41-1.35.19-2.81-.61-3.98s-2.08-1.9-3.49-2.01c-7.97-.58-15.82-1.8-23.34-3.61-.61-.15-1.15-.56-1.46-1.11-.31-.56-.39-1.25-.19-1.85l4.13-13.07c.31-.98,1.18-1.61,2.21-1.61.26,0,.51.04.75.12,8.28,2.75,17.17,4.39,26.44,4.87.08,0,.16,0,.24,0,1.87,0,3.57-1.13,4.29-2.87,6.87-16.67,15.49-34.3,25.62-52.39.89-1.59.77-3.56-.31-5.02-.89-1.2-2.28-1.89-3.74-1.89-.32,0-.65.03-.97.1-14.54,3.1-28.98,7.16-42.94,12.08-1.22.45-2.62.96-4.1,1.49-3.88,1.4-8.22,2.97-11.24,4.3-1.49.65-3.27,1.39-5.12,2.16l-.19.08c-3.48,1.44-7.08,2.94-9.75,4.23l-14.66,7.07c-.08.04-.16.08-.24.12l-14.22,7.89c-3.54,1.96-7.45,4.45-11.22,6.85-2.13,1.36-4.21,2.68-6.17,3.88-.04.02-.08.05-.12.07-12.85,8.37-25.04,18.04-34.22,25.53-.41.34-.93.52-1.46.52-.71,0-1.34-.3-1.79-.85l-8.8-10.73c-.39-.47-.58-1.12-.51-1.74.07-.64.37-1.18.88-1.58,55.55-43.37,117.84-70.91,185.16-81.86,1.32-.21,2.48-.99,3.19-2.12,3.51-5.62,7.17-11.35,11.19-17.52,8.25-12.67,17.55-26.22,29.28-42.63.87-1.21,1.1-2.76.63-4.17-.05-.15-.09-.3-.11-.46-.08-.62.08-1.22.46-1.72.43-.56,1.13-.9,1.84-.9.5,0,1.01.17,1.41.48l13.32,10.23c.88.68,1.16,1.89.66,2.88-.04.08-.08.16-.11.24-11.76,15.12-22.8,30.04-32.8,44.38-1.03,1.47-1.11,3.41-.22,4.97.83,1.45,2.37,2.33,4.02,2.33.13,0,.25,0,.38-.02,10.53-.86,21.15-1.34,31.56-1.44.64,0,1.22.23,1.68.7.45.46.68,1.04.67,1.67l-.25,13.84c-.02,1.24-1.08,2.28-2.32,2.28l-1.08-.03c-3.08-.09-6.27-.17-9.41-.17-1.2,0-2.41.01-3.61.04-12.25.09-24.75.86-37.08,2.28-1.39.16-2.64.94-3.39,2.13-12.81,20.21-23.42,39.32-31.53,56.79-.73,1.58-.52,3.44.55,4.81.89,1.14,2.25,1.79,3.66,1.79.29,0,.58-.03.87-.08,9.74-1.86,19.29-4.9,28.37-9.02,8.1-3.68,15.83-8.27,22.98-13.67.42-.32.9-.48,1.42-.48.74,0,1.44.36,1.87.95l8.06,11.13c.37.51.52,1.18.4,1.8-.12.61-.5,1.18-1.02,1.51-8.65,5.55-17.74,10.33-27.01,14.19-15.18,6.3-31.15,10.22-47.45,11.64-1.83.16-3.39,1.38-3.99,3.12-6.6,19.22-9.64,36.32-9.02,50.82,0,.05,0,.1,0,.15,1.69,22.69,15.11,34.2,39.87,34.2.42,0,.85,0,1.27,0,32.25-1.04,73.22-17.09,125.33-49.06.37-.23.78-.34,1.21-.34.81,0,1.59.45,2,1.15l6.96,11.91c.31.53.4,1.21.23,1.8-.17.59-.59,1.12-1.13,1.41-8.8,4.74-16.68,8.85-23.44,12.24-33.28,16.32-76.06,35.07-111.41,35.07h0Z"/><path class="cls-1" d="M48.29,162.51C77.06,87.36,149.86,34,235.13,34c110.46,0,200,89.54,200,200s-89.54,200-200,200c-82.84,0-153.92-50.37-184.28-122.15"/></svg>